<svg xmlns="http://www.w3.org/2000/svg" viewBox="0 0 1600 1000" role="img" aria-labelledby="title desc">
  <title id="title">Progressive lens banner</title>
  <desc id="desc">Editorial banner with sage and cream palette and abstract progressive lens illustration.</desc>
  <defs>
    <linearGradient id="bg" x1="0%" y1="0%" x2="100%" y2="100%">
      <stop offset="0%" stop-color="#dde6de"/>
      <stop offset="100%" stop-color="#bccfc2"/>
    </linearGradient>
  </defs>
  <rect width="1600" height="1000" fill="url(#bg)"/>
  <rect x="0" y="666" width="1600" height="334" fill="#f8f4eb"/>
  <circle cx="260" cy="762" r="184" fill="#c5d3c4" opacity="0.5"/>
  <circle cx="1378" cy="246" r="120" fill="#ffffff" opacity="0.45"/>
  <text x="110" y="196" fill="#1f3c36" font-family="Georgia, serif" font-size="64" letter-spacing="8">PROGRESSIVE</text>
  <text x="110" y="300" fill="#1f3c36" font-family="Georgia, serif" font-size="126">Clear Vision</text>
  <text x="110" y="378" fill="#43645d" font-family="Trebuchet MS, Arial, sans-serif" font-size="42" letter-spacing="3">EVERYDAY COMFORT FROM NEAR TO FAR</text>
  <g transform="translate(900 260)" fill="none">
    <path d="M0 132C0 50 64 0 150 0H278C364 0 428 50 428 132V256C428 338 364 388 278 388H150C64 388 0 338 0 256Z" fill="#eef4ef" stroke="#1f3c36" stroke-width="24"/>
    <path d="M512 132C512 50 576 0 662 0H790C876 0 940 50 940 132V256C940 338 876 388 790 388H662C576 388 512 338 512 256Z" fill="#eef4ef" stroke="#1f3c36" stroke-width="24"/>
    <path d="M428 146H512" stroke="#1f3c36" stroke-width="22" stroke-linecap="round"/>
    <path d="M112 74L-18 36" stroke="#1f3c36" stroke-width="18" stroke-linecap="round"/>
    <path d="M828 74L962 30" stroke="#1f3c36" stroke-width="18" stroke-linecap="round"/>
    <path d="M58 54H370V208H58Z" fill="#d3e5da"/>
    <path d="M58 208H370V334H58Z" fill="#f5f1e7"/>
    <path d="M570 54H882V208H570Z" fill="#d3e5da"/>
    <path d="M570 208H882V334H570Z" fill="#f5f1e7"/>
  </g>
</svg>
