<svg xmlns="http://www.w3.org/2000/svg" viewBox="0 0 1600 1000" role="img" aria-labelledby="title desc">
  <title id="title">New in eyewear</title>
  <desc id="desc">Editorial banner with warm sand background and abstract glasses illustration.</desc>
  <defs>
    <linearGradient id="bg" x1="0%" y1="0%" x2="100%" y2="100%">
      <stop offset="0%" stop-color="#f5e7d7"/>
      <stop offset="100%" stop-color="#ead3bc"/>
    </linearGradient>
  </defs>
  <rect width="1600" height="1000" fill="url(#bg)"/>
  <circle cx="1260" cy="210" r="132" fill="#d6a57e" opacity="0.35"/>
  <circle cx="1110" cy="802" r="220" fill="#fff7ef" opacity="0.85"/>
  <path d="M0 740C180 680 290 680 440 770C630 885 790 905 1000 800C1210 695 1390 665 1600 760V1000H0Z" fill="#f9f1e9"/>
  <text x="108" y="196" fill="#2f2925" font-family="Georgia, serif" font-size="74" letter-spacing="8">NEW IN</text>
  <text x="108" y="302" fill="#2f2925" font-family="Georgia, serif" font-size="132">Spring Frames</text>
  <text x="108" y="382" fill="#5c4d44" font-family="Trebuchet MS, Arial, sans-serif" font-size="42" letter-spacing="3">LIGHTWEIGHT ACETATE SHAPES</text>
  <g transform="translate(918 330)" fill="none" stroke="#2f2925" stroke-linecap="round" stroke-linejoin="round">
    <path d="M0 100C0 32 55 0 124 0H246C315 0 370 32 370 100V206C370 274 315 306 246 306H124C55 306 0 274 0 206Z" stroke-width="24"/>
    <path d="M448 100C448 32 503 0 572 0H694C763 0 818 32 818 100V206C818 274 763 306 694 306H572C503 306 448 274 448 206Z" stroke-width="24"/>
    <path d="M370 118H448" stroke-width="22"/>
    <path d="M48 110L-84 70" stroke-width="18"/>
    <path d="M770 110L906 64" stroke-width="18"/>
    <path d="M144 70C178 112 184 192 144 236" stroke="#d18c5c" stroke-width="12"/>
    <path d="M626 70C660 112 666 192 626 236" stroke="#d18c5c" stroke-width="12"/>
  </g>
</svg>
